<svg xmlns="http://www.w3.org/2000/svg" enable-background="new 0 0 80 80" viewBox="0 0 80 80">
  <path d="M61.000061,30H47.8457642L55.881897,7.6777344c0.2207031-0.6132812,0.1289062-1.2949219-0.2456055-1.828125
	C55.2617798,5.3173828,54.6514282,5,54.000061,5h-24c-0.8608398,0-1.625,0.5507812-1.8974609,1.3671875l-11,33
	c-0.203125,0.6103516-0.1010742,1.2802734,0.2749023,1.8017578C17.753479,41.6914062,18.3569946,42,19.000061,42h15.3041992
	l-9.2182617,30.4199219c-0.2758789,0.9111328,0.128418,1.890625,0.9667969,2.3417969
	C26.3521118,74.9228516,26.6773071,75,26.9990845,75c0.5800781,0,1.1494141-0.2519531,1.5405273-0.7236328l34-41
	c0.4946289-0.5966797,0.6000977-1.4248047,0.2705078-2.1269531C62.4805298,30.4482422,61.7754517,30,61.000061,30z
	 M31.7896118,64.0917969l7.1245117-23.5117188c0.1835938-0.6064453,0.0693359-1.2636719-0.3076172-1.7714844
	C38.2290649,38.2998047,37.6333618,38,37.000061,38H21.7749634l9.6665039-29h19.7128906l-8.0361328,22.3222656
	c-0.2207031,0.6132812-0.1289062,1.2949219,0.2456055,1.828125C43.7383423,33.6826172,44.3486938,34,45.000061,34h11.7431641
	L31.7896118,64.0917969z" />
</svg>